<svg width="20" height="16" viewBox="0 0 20 16" fill="none" xmlns="http://www.w3.org/2000/svg">
<path d="M19 2.6875H1C0.59 2.6875 0.25 2.2625 0.25 1.75C0.25 1.2375 0.59 0.8125 1 0.8125H19C19.41 0.8125 19.75 1.2375 19.75 1.75C19.75 2.2625 19.41 2.6875 19 2.6875Z" fill="#FE8D13"/>
<path d="M19 8.9375H1C0.59 8.9375 0.25 8.5125 0.25 8C0.25 7.4875 0.59 7.0625 1 7.0625H19C19.41 7.0625 19.75 7.4875 19.75 8C19.75 8.5125 19.41 8.9375 19 8.9375Z" fill="#FE8D13"/>
<path d="M19 15.1875H1C0.59 15.1875 0.25 14.7625 0.25 14.25C0.25 13.7375 0.59 13.3125 1 13.3125H19C19.41 13.3125 19.75 13.7375 19.75 14.25C19.75 14.7625 19.41 15.1875 19 15.1875Z" fill="#FE8D13"/>
</svg>
