<svg width="20" height="16" viewBox="0 0 20 16" fill="none" xmlns="http://www.w3.org/2000/svg">
<path fill-rule="evenodd" clip-rule="evenodd" d="M0.8 0.000244141C0.587827 0.000244141 0.384344 0.0845296 0.234315 0.234559C0.0842855 0.384588 0 0.588071 0 0.800244C0 1.01242 0.0842855 1.2159 0.234315 1.36593C0.384344 1.51596 0.587827 1.60024 0.8 1.60024H4.606L5.095 3.51524L5.302 4.42624L6.617 10.2262C6.72457 10.7016 7.00198 11.1213 7.39713 11.4065C7.79229 11.6917 8.27799 11.8228 8.763 11.7752L15.503 11.1152C16.0579 11.061 16.5867 10.8531 17.0301 10.515C17.4734 10.177 17.8138 9.72201 18.013 9.20124L19.933 4.18324C19.9909 4.03182 20.0111 3.8686 19.9918 3.70764C19.9726 3.54668 19.9145 3.39281 19.8226 3.25928C19.7307 3.12575 19.6077 3.01656 19.4643 2.94112C19.3208 2.86569 19.1611 2.82626 18.999 2.82624H6.57L6.003 0.602244C5.95902 0.430081 5.85898 0.277459 5.71865 0.168455C5.57832 0.059451 5.40569 0.000268644 5.228 0.000244141L0.8 0.000244141ZM8.041 14.4802C8.041 15.3202 7.347 16.0002 6.49 16.0002C5.633 16.0002 4.938 15.3202 4.938 14.4802C4.938 13.6402 5.633 12.9602 6.49 12.9602C7.347 12.9602 8.041 13.6402 8.041 14.4802ZM16.831 16.0002C17.688 16.0002 18.383 15.3202 18.383 14.4802C18.383 13.6402 17.688 12.9602 16.832 12.9602C15.975 12.9602 15.28 13.6402 15.28 14.4802C15.28 15.3202 15.975 16.0002 16.832 16.0002H16.831Z" fill="#FE8D13"/>
</svg>
