<svg width="36" height="36" viewBox="0 0 36 36" fill="none" xmlns="http://www.w3.org/2000/svg">
<path d="M9.2663 34.6666H26.733C31.333 34.6666 33.1663 31.85 33.383 28.4166L34.2496 14.65C34.483 11.05 31.6163 7.99998 27.9996 7.99998C26.983 7.99998 26.0496 7.41665 25.583 6.51665L24.383 4.09998C23.6163 2.58331 21.6163 1.33331 19.9163 1.33331H16.0996C14.383 1.33331 12.383 2.58331 11.6163 4.09998L10.4163 6.51665C9.94963 7.41665 9.0163 7.99998 7.99963 7.99998C4.38296 7.99998 1.51629 11.05 1.74963 14.65L2.61629 28.4166C2.81629 31.85 4.6663 34.6666 9.2663 34.6666Z" fill="#FDFCFF" stroke="#BD7DC1" stroke-width="1.5" stroke-linecap="round" stroke-linejoin="round"/>
<path d="M15.5 11.3333H20.5Z" fill="#FDFCFF"/>
<path d="M15.5 11.3333H20.5" stroke="#BD7DC1" stroke-width="1.5" stroke-linecap="round" stroke-linejoin="round"/>
<path d="M18.0007 28C20.984 28 23.4173 25.5667 23.4173 22.5834C23.4173 19.6 20.984 17.1667 18.0007 17.1667C15.0173 17.1667 12.584 19.6 12.584 22.5834C12.584 25.5667 15.0173 28 18.0007 28Z" fill="#FDFCFF" stroke="#BD7DC1" stroke-width="1.5" stroke-linecap="round" stroke-linejoin="round"/>
</svg>
