<svg width="32" height="32" viewBox="0 0 32 32" fill="none" xmlns="http://www.w3.org/2000/svg">
<g clip-path="url(#clip0_0_3454)">
<path d="M29.986 27.715H2.008C0.915 27.715 0 26.85 0 25.733V6.376C0.00105854 5.84395 0.213019 5.33403 0.58942 4.958C0.965821 4.58198 1.47595 4.37052 2.008 4.37H29.986C31.079 4.37 31.994 5.26999 31.994 6.378V25.708C31.969 26.852 31.079 27.715 29.986 27.715Z" fill="#F2F2F2"/>
<path opacity="0.1" d="M4.00078 27.715L15.9708 18.955L16.0468 18.447L3.70078 9.578L3.67578 27.283L4.00078 27.715Z" fill="#221F1F"/>
<path d="M2.008 27.715C0.9 27.715 0 26.85 0 25.733V6.35003C0 5.23203 0.9 5.03003 2.008 5.03003C3.116 5.03003 4.016 5.26003 4.016 6.35003V27.714L2.008 27.715Z" fill="#D44C3D"/>
<path d="M2.0082 5.33408C3.4312 5.33408 3.7112 5.76608 3.7112 6.35008V27.4341H2.0082C1.0682 27.4341 0.305201 26.6721 0.305201 25.7311V6.35008C0.280201 5.75008 0.585201 5.33408 2.0082 5.33408ZM2.0082 5.05408C0.900201 5.05508 0.000200856 5.28308 0.000200856 6.35008V25.7061C-0.00357014 25.9708 0.0457926 26.2336 0.145369 26.4789C0.244945 26.7243 0.392712 26.9471 0.579929 27.1343C0.767145 27.3216 0.990008 27.4693 1.23533 27.5689C1.48066 27.6685 1.74346 27.7178 2.0082 27.7141H4.0162V6.35008C4.0002 5.25808 3.1262 5.05408 2.0082 5.05408ZM29.9862 5.33408C31.2822 5.33408 31.6892 5.58808 31.6892 6.30008V25.7581C31.6892 26.6981 30.9272 27.4611 29.9862 27.4611H28.2832V6.30008C28.2582 5.56308 28.6902 5.33408 29.9862 5.33408ZM29.9862 5.05408C28.8682 5.05408 27.9782 5.20608 27.9782 6.29908V27.7391H29.9862C31.1042 27.7391 31.9942 26.8391 31.9942 25.7311V6.27408C31.9692 5.18108 31.0792 5.05408 29.9862 5.05408Z" fill="#D44C3D"/>
<path d="M29.9865 27.7151H27.9785V6.30005C27.9785 5.18205 28.8785 5.05505 29.9865 5.05505C31.0945 5.05505 31.9945 5.20705 31.9945 6.30005V25.7581C31.9832 26.2824 31.7665 26.7813 31.3909 27.1474C31.0153 27.5134 30.511 27.7173 29.9865 27.7151Z" fill="#D44C3D"/>
<path opacity="0.08" d="M21.4217 27.715L0.177734 7.2L1.29573 7.657L16.0957 18.304L31.9927 6.63V25.758C31.9917 26.0202 31.9389 26.2796 31.8372 26.5213C31.7356 26.763 31.5873 26.9822 31.4007 27.1664C31.2141 27.3505 30.993 27.496 30.75 27.5945C30.507 27.6929 30.2469 27.7424 29.9847 27.74L21.4217 27.715Z" fill="#221F1F"/>
<path d="M15.9601 18.98L0.864094 8.02797C-0.0359058 7.36797 -0.279906 6.09797 0.381094 5.20797C1.04209 4.31797 2.31109 4.11497 3.22709 4.77597L15.9841 14.051L28.8171 4.64997C29.7171 3.98997 30.9521 4.19297 31.6121 5.10697C32.2721 6.00697 32.0691 7.24197 31.1551 7.90197L15.9601 18.98Z" fill="#D44C3D"/>
<path d="M29.9864 4.57177C30.5204 4.57177 31.0534 4.82577 31.3844 5.28377C31.9184 6.04577 31.7644 7.11377 31.0044 7.68377L15.9604 18.6248L1.04238 7.79977C0.280378 7.23977 0.0763778 6.14677 0.600378 5.39977C0.905378 4.94277 1.44038 4.66277 2.02338 4.66277C2.40338 4.66277 2.76038 4.76477 3.03938 4.99277L15.7694 14.2428L15.9474 14.3448L16.1254 14.2428L28.9454 4.84977C29.2754 4.67177 29.6054 4.56977 29.9874 4.56977L29.9864 4.57177ZM29.9864 4.26677C29.5794 4.26677 29.1464 4.36877 28.8164 4.64677L15.9844 14.0498L3.20238 4.74977C2.87238 4.49577 2.44038 4.36977 2.00838 4.36977C1.37338 4.39477 0.738378 4.67477 0.356378 5.20977C-0.278622 6.10977 -0.0236222 7.34477 0.864378 8.00477L15.9604 18.9798L31.1554 7.89977C31.5828 7.58687 31.8703 7.11857 31.9557 6.59577C32.0412 6.07298 31.9179 5.53752 31.6124 5.10477C31.2054 4.57077 30.5964 4.26477 29.9864 4.26477V4.26677Z" fill="#D44C3D"/>
</g>
<defs>
<clipPath id="clip0_0_3454">
<rect width="32" height="32" fill="white"/>
</clipPath>
</defs>
</svg>
