<svg width="25" height="24" viewBox="0 0 25 24" fill="none" xmlns="http://www.w3.org/2000/svg">
<path d="M16.9877 17.0566L19.0543 14.9892C19.3327 14.7142 19.6849 14.5259 20.0681 14.4473C20.4513 14.3686 20.8491 14.403 21.2132 14.5461L23.732 15.5522C24.0999 15.7016 24.4154 15.9566 24.6387 16.2851C24.862 16.6136 24.9831 17.0009 24.9867 17.3981V22.013C24.9846 22.2833 24.9278 22.5502 24.8198 22.7979C24.7118 23.0456 24.5548 23.2689 24.3582 23.4543C24.1617 23.6397 23.9297 23.7834 23.6762 23.8767C23.4227 23.9701 23.1529 24.0111 22.8832 23.9974C5.23374 22.8991 1.67248 7.94686 0.998981 2.22441C0.967717 1.9434 0.996282 1.65895 1.0828 1.38977C1.16931 1.1206 1.31182 0.872797 1.50094 0.662676C1.69006 0.452554 1.92151 0.284873 2.18006 0.170663C2.43861 0.0564526 2.7184 -0.0016975 3.00103 3.77211e-05H7.45721C7.85486 0.00121524 8.24307 0.121379 8.5719 0.345073C8.90073 0.568768 9.15514 0.885763 9.30242 1.25529L10.3081 3.77501C10.4559 4.1378 10.4936 4.53614 10.4165 4.92025C10.3394 5.30436 10.1508 5.65723 9.87443 5.93478L7.8078 8.00224C7.8078 8.00224 8.99796 16.0598 16.9877 17.0566Z" fill="#FE8D13"/>
</svg>
