<svg width="12" height="12" viewBox="0 0 12 12" fill="none" xmlns="http://www.w3.org/2000/svg">
<path d="M6.49333 0.643851L7.90194 4.14093L11.5093 4.46585C11.7595 4.48893 11.861 4.8157 11.6709 4.98831L8.93532 7.47416L9.75502 11.172C9.81179 11.4291 9.5464 11.6312 9.33132 11.4946L6.23163 9.534L3.13148 11.4946C2.91594 11.6303 2.65148 11.4282 2.70779 11.1715L3.52794 7.47416L0.791018 4.98785C0.601325 4.81524 0.702402 4.48801 0.953479 4.46539L4.5604 4.14001L5.96948 0.64339C5.98926 0.589855 6.02497 0.543668 6.0718 0.511047C6.11863 0.478426 6.17433 0.460937 6.2314 0.460938C6.28847 0.460938 6.34418 0.478426 6.39101 0.511047C6.43784 0.543668 6.47354 0.590317 6.49333 0.643851Z" stroke="#FCA95D" stroke-width="0.461538"/>
</svg>
