<svg width="23" height="21" viewBox="0 0 23 21" fill="none" xmlns="http://www.w3.org/2000/svg">
<path d="M21.5297 0.890997L1.06931 9.06174C-0.311451 9.58065 -0.311451 10.4885 0.818257 10.7478L5.96473 12.4339L7.97311 18.6592C8.22416 19.3078 8.09863 19.5672 8.72627 19.5672C9.22837 19.5672 9.47943 19.3078 9.73048 19.0484C9.85601 18.9187 10.9857 17.7514 12.2409 16.4544L17.513 20.475C18.517 20.9937 19.1447 20.7344 19.3957 19.5672L22.9105 2.57704C23.2871 1.15039 22.4084 0.372202 21.5297 0.890997ZM18.8936 4.78186L9.10285 13.9902L8.72627 18.2701L6.71787 12.0449L18.2661 4.52247C18.7681 4.13337 19.2702 4.39276 18.8936 4.78186Z" fill="#FE8D13"/>
</svg>
