<svg width="32" height="32" viewBox="0 0 32 32" fill="none" xmlns="http://www.w3.org/2000/svg">
<g clip-path="url(#clip0_0_3451)">
<path d="M27.2 0H4.8C2.14903 0 0 2.14903 0 4.8V27.2C0 29.851 2.14903 32 4.8 32H27.2C29.851 32 32 29.851 32 27.2V4.8C32 2.14903 29.851 0 27.2 0Z" fill="#1DA1F2"/>
<path d="M27.3125 9.49997C26.5625 9.87497 25.6875 10.125 24.8125 10.25C25.75 9.68747 26.4375 8.81247 26.8125 7.74997C25.9375 8.24997 25 8.62497 24 8.81247C23.3199 8.11587 22.4321 7.65863 21.4701 7.50938C20.508 7.36012 19.5235 7.52691 18.6642 7.98469C17.805 8.44248 17.1174 9.16658 16.7047 10.0483C16.2919 10.9301 16.1762 11.9219 16.375 12.875C12.875 12.6875 9.5 11.0625 7.3125 8.24997C7.01485 8.72538 6.81425 9.25501 6.72226 9.80832C6.63027 10.3616 6.64872 10.9277 6.77654 11.4738C6.90436 12.02 7.13903 12.5354 7.46701 12.9904C7.79498 13.4454 8.20979 13.831 8.6875 14.125C8 14.125 7.3125 14 6.6875 13.6875C6.75 15.75 8.1875 17.5625 10.1875 18C9.5625 18.1875 8.875 18.1875 8.1875 18.0625C8.8125 19.875 10.5 21.125 12.375 21.1875C10.5625 22.6875 8.125 23.375 5.8125 23C7.74495 24.2895 9.99993 25.012 12.3219 25.0856C14.644 25.1592 16.9402 24.581 18.9504 23.4165C20.9606 22.2519 22.6046 20.5477 23.6959 18.4968C24.7872 16.4459 25.2822 14.1303 25.125 11.8125C26 11.1875 26.75 10.4375 27.3125 9.49997Z" fill="white"/>
</g>
<defs>
<clipPath id="clip0_0_3451">
<rect width="32" height="32" fill="white"/>
</clipPath>
</defs>
</svg>
