<svg width="32" height="32" viewBox="0 0 32 32" fill="none" xmlns="http://www.w3.org/2000/svg">
<g clip-path="url(#clip0_0_3445)">
<path d="M27.2 0H4.8C2.14903 0 0 2.14903 0 4.8V27.2C0 29.851 2.14903 32 4.8 32H27.2C29.851 32 32 29.851 32 27.2V4.8C32 2.14903 29.851 0 27.2 0Z" fill="#5281B8"/>
<path d="M17.1245 22.6876C17.437 22.6251 17.9995 22.5001 17.9995 21.7501C17.9995 21.7501 17.937 19.8751 18.812 19.6251C19.687 19.3751 20.812 21.4376 21.9995 22.2501C22.8745 22.8126 23.562 22.7501 23.562 22.7501L26.7495 22.6876C26.7495 22.6876 28.3745 22.5626 27.6245 21.2501C27.562 21.1251 27.062 20.3126 25.187 18.6251C23.2495 16.7501 23.562 17.0626 25.8745 13.8751C27.312 11.9376 27.937 10.7501 27.7495 10.3126C27.4995 9.87505 26.4995 9.93755 26.4995 9.93755H22.937C22.562 9.93755 22.3745 10.0001 22.187 10.3126C22.187 10.3126 21.6245 11.8751 20.8745 13.1251C19.312 15.8126 18.687 15.9376 18.3745 15.7501C17.812 15.4376 17.937 14.2501 17.937 13.4376C17.937 10.6251 18.3745 9.62505 17.1245 9.37505C16.312 9.25005 13.437 9.12505 12.562 9.56255C12.1245 9.81255 11.8745 10.2501 12.062 10.3126C12.2495 10.3126 12.812 10.3751 13.1245 10.7501C13.6245 11.5626 13.687 15.4376 12.9995 15.8126C12.062 16.5001 9.68698 11.9376 9.12448 10.4376C8.99948 10.0626 8.81198 10.0001 8.37448 9.87505H4.93698C4.56198 9.87505 3.99948 9.93755 4.24948 10.6876C5.93698 14.1876 9.43698 22.7501 15.7495 22.6876H17.1245Z" fill="white"/>
</g>
<defs>
<clipPath id="clip0_0_3445">
<rect width="32" height="32" fill="white"/>
</clipPath>
</defs>
</svg>
