<svg width="30" height="19" viewBox="0 0 30 19" fill="none" xmlns="http://www.w3.org/2000/svg">
<path d="M14.2063 18.3982H15.9393C15.9393 18.3982 16.4656 18.3377 16.7328 18.0295C16.9799 17.7433 16.9718 17.2122 16.9718 17.2122C16.9718 17.2122 16.9375 14.7181 18.0187 14.3513C19.0834 13.9869 20.4521 16.761 21.9016 17.8257C22.997 18.6326 23.8309 18.4569 23.8309 18.4569L27.7101 18.3985C27.7101 18.3985 29.7385 18.2638 28.7748 16.5573C28.6976 16.4161 28.2162 15.2928 25.8919 12.9831C23.4602 10.5649 23.7862 10.9571 26.7156 6.77582C28.4993 4.22833 29.2118 2.67452 28.9894 2.00877C28.7769 1.37422 27.4647 1.54128 27.4647 1.54128L23.0981 1.57061C23.0981 1.57061 22.7742 1.52306 22.5351 1.67683C22.3006 1.82751 22.1506 2.17891 22.1506 2.17891C22.1506 2.17891 21.4583 4.14928 20.539 5.82476C18.5955 9.36089 17.818 9.54865 17.4981 9.32847C16.7594 8.81666 16.9433 7.27363 16.9433 6.17616C16.9433 2.74955 17.4294 1.32018 16.0001 0.950575C15.5244 0.827985 15.1739 0.746769 13.9613 0.7338C12.4045 0.716509 11.0846 0.738123 10.3395 1.13059C9.84141 1.3909 9.45888 1.97111 9.69156 2.00477C9.98094 2.04584 10.6349 2.19343 10.9812 2.69892C11.4285 3.35046 11.4123 4.81472 11.4123 4.81472C11.4123 4.81472 11.6695 8.84956 10.8131 9.35073C10.2239 9.69447 9.41623 8.99167 7.683 5.78431C6.79635 4.14032 6.12417 2.32375 6.12417 2.32375C6.12417 2.32375 5.99474 1.98438 5.76588 1.80313C5.48456 1.58296 5.0957 1.51255 5.0957 1.51255L0.94554 1.54128C0.94554 1.54128 0.322056 1.5598 0.0952153 1.85037C-0.109155 2.10821 0.0790685 2.64179 0.0790685 2.64179C0.0790685 2.64179 3.32645 10.7813 7.00303 14.8849C10.3758 18.6455 14.2063 18.3982 14.2063 18.3982Z" fill="#FE8D13"/>
</svg>
