<svg width="22" height="22" viewBox="0 0 22 22" fill="none" xmlns="http://www.w3.org/2000/svg">
<path fill-rule="evenodd" clip-rule="evenodd" d="M18.4796 3.15707C16.447 1.12196 13.7427 0 10.8598 0C4.92303 0 0.090563 4.82995 0.0880474 10.7668C0.0880474 12.6635 0.58362 14.5175 1.52697 16.1501L0 21.7297L5.71041 20.233C7.28266 21.0908 9.05615 21.5436 10.8573 21.5436H10.8623C16.7992 21.5436 21.6316 16.7136 21.6341 10.7743C21.6341 7.89646 20.5147 5.19219 18.4821 3.15707H18.4796ZM10.8598 19.7248H10.8573C9.24985 19.7248 7.67509 19.2921 6.30158 18.4771L5.97454 18.2834L2.58603 19.1714L3.49165 15.8684L3.27782 15.5288C2.38227 14.105 1.90934 12.4572 1.90934 10.7668C1.90934 5.83115 5.92675 1.81626 10.8674 1.81626C13.2597 1.81626 15.5061 2.74955 17.1966 4.44003C18.8871 6.13303 19.8179 8.37945 19.8154 10.7718C19.8154 15.7074 15.7979 19.7223 10.8623 19.7223L10.8598 19.7248ZM15.7703 13.0207C15.5011 12.8849 14.1779 12.2359 13.9314 12.1453C13.6848 12.0547 13.5062 12.0095 13.3251 12.2811C13.1465 12.5503 12.6308 13.1566 12.4723 13.3352C12.3164 13.5138 12.1579 13.5364 11.8887 13.4031C11.6195 13.2673 10.7517 12.9855 9.7253 12.0673C8.92534 11.3529 8.38448 10.4724 8.22852 10.2033C8.07255 9.93409 8.21091 9.78819 8.34675 9.65486C8.4675 9.53411 8.61592 9.34041 8.74925 9.18445C8.88257 9.02848 8.92786 8.91528 9.01842 8.73667C9.10898 8.55806 9.0637 8.39958 8.99578 8.26625C8.92786 8.13293 8.38951 6.80721 8.16563 6.26887C7.94677 5.74311 7.7254 5.81606 7.55937 5.806C7.40341 5.79845 7.22228 5.79594 7.04367 5.79594C6.86506 5.79594 6.57325 5.86386 6.32673 6.13303C6.0802 6.40219 5.38589 7.05373 5.38589 8.37694C5.38589 9.70014 6.34937 10.9806 6.48521 11.1592C6.61854 11.3378 8.38197 14.0572 11.0837 15.2219C11.7252 15.4986 12.2283 15.6646 12.6182 15.7879C13.2622 15.9917 13.8509 15.964 14.3137 15.8935C14.832 15.8156 15.9061 15.242 16.13 14.6131C16.3539 13.9842 16.3539 13.4459 16.286 13.3327C16.2181 13.2195 16.0394 13.1541 15.7703 13.0182V13.0207Z" fill="#FE8D13"/>
</svg>
